<?xml version="1.0" encoding="UTF-8" standalone="no"?>
<svg width="22px" height="12px" viewBox="0 0 22 12" version="1.1" xmlns="http://www.w3.org/2000/svg" xmlns:xlink="http://www.w3.org/1999/xlink">
    <!-- Generator: Sketch 3.6.1 (26313) - http://www.bohemiancoding.com/sketch -->
    <title>down_arrow</title>
    <desc>Created with Sketch.</desc>
    <defs>
        <path id="path-1" d="M11.90111,21.20703 L0,21.20703 L0,0.00013 L11.90111,0.00013 L11.90111,21.20703 L11.90111,21.20703 Z"></path>
    </defs>
    <g id="Page-1" stroke="none" stroke-width="1" fill="none" fill-rule="evenodd">
        <g id="homepage" transform="translate(-496.000000, -772.000000)">
            <g id="down_arrow" transform="translate(506.550000, 778.065625) rotate(-270.000000) translate(-506.550000, -778.065625) translate(500.550000, 767.065625)">
                <mask id="mask-2" fill="white">
                    <use xlink:href="#path-1"></use>
                </mask>
                <g id="Clip-2"></g>
                <path d="M2.21936,20.82626 L11.52086,11.52476 C12.02786,11.01776 12.02786,10.19486 11.52086,9.68656 L2.21936,0.38116 C1.71236,-0.12714 0.88946,-0.12714 0.38116,0.38116 C-0.12714,0.88816 -0.12714,1.71106 0.38116,2.21936 L8.76356,10.60566 L0.38116,18.98806 C-0.12714,19.49506 -0.12714,20.31926 0.38116,20.82626 C0.88816,21.33456 1.71106,21.33456 2.21936,20.82626 L2.21936,20.82626 Z" id="Fill-1" fill="#7688BF" mask="url(#mask-2)"></path>
            </g>
        </g>
    </g>
</svg>