<?xml version="1.0" encoding="UTF-8" standalone="no"?>
<svg width="37px" height="26px" viewBox="0 0 37 26" version="1.1" xmlns="http://www.w3.org/2000/svg" xmlns:xlink="http://www.w3.org/1999/xlink">
    <!-- Generator: Sketch 3.6.1 (26313) - http://www.bohemiancoding.com/sketch -->
    <title>logo</title>
    <desc>Created with Sketch.</desc>
    <defs>
        <path id="path-1" d="M0,0.0416 L36.7758857,0.0416 L36.7758857,26 L0,26"></path>
        <path id="path-3" d="M0,0.0416 L36.7758857,0.0416 L36.7758857,26 L0,26 L0,0.0416 Z"></path>
    </defs>
    <g id="Page-1" stroke="none" stroke-width="1" fill="none" fill-rule="evenodd" opacity="0.834305037">
        <g id="homepage" transform="translate(-138.000000, -131.000000)">
            <g id="logo" transform="translate(138.187500, 131.000000)">
                <g id="Group-3">
                    <mask id="mask-2" fill="white">
                        <use xlink:href="#path-1"></use>
                    </mask>
                    <g id="Clip-2"></g>
                    <path d="M35.6958733,12.429872 L22.9795019,24.940032 C22.5820162,25.331072 22.8635686,26.0001387 23.4256162,26.0001387 L23.6007495,26.0001387 C25.4292543,26.0001387 27.1418257,25.6600587 28.7416352,24.987872 C30.2603971,24.346192 31.595921,23.4760587 32.748559,22.3705387 C32.8084638,22.315072 32.87154,22.2561387 32.9314448,22.1972053 C32.9702067,22.159072 33.0089686,22.120592 33.0406829,22.0828053 C34.1823971,20.921472 35.0844924,19.5795253 35.7469686,18.0580053 C36.4305876,16.483792 36.775921,14.7993387 36.775921,13.0001387 C36.775921,12.951952 36.775921,12.9037653 36.7752162,12.8559253 C36.7692257,12.3088853 36.0891305,12.042992 35.6958733,12.429872" id="Fill-1" fill="#344060" mask="url(#mask-2)"></path>
                </g>
                <path d="M35.7470743,7.94556533 C35.2724171,6.850792 34.6716076,5.85412533 33.9478171,4.95348533 C33.712779,4.66089867 33.2701886,4.63420533 33.002379,4.89801867 L12.6298267,24.9402053 C12.232341,25.3312453 12.5138933,25.9999653 13.0762933,25.9999653 L18.4444648,25.9999653 C18.6118457,25.9999653 18.772179,25.9344453 18.890579,25.818312 L35.8249505,9.158552 C35.9969124,8.98937867 36.0592838,8.73665867 35.9754171,8.51201867 C35.9045886,8.32204533 35.8284743,8.133112 35.7470743,7.94556533" id="Fill-4" fill="#344060"></path>
                <path d="M28.7417762,1.05390133 C28.3284333,0.880568 27.9087476,0.728034667 27.482719,0.600461333 C27.2628333,0.534594667 27.0235667,0.598728 26.8607667,0.758541333 L9.70263333,17.6384347 L6.10975714,21.173048 C5.69747143,21.578648 6.01672857,22.2699013 6.59850952,22.2314213 L8.06265238,22.1343547 C8.44639524,22.109048 8.76389048,22.4238213 8.73464286,22.8009947 L8.62681429,24.1893947 C8.58241429,24.7638213 9.28823333,25.0831013 9.70263333,24.675768 L9.70263333,24.675768 L31.3427,3.38662133 C31.619319,3.114488 31.5816143,2.66174133 31.2630619,2.43883467 C30.4878238,1.89630133 29.6466905,1.435928 28.7417762,1.05390133" id="Fill-6" fill="#344060"></path>
                <path d="M9.70252762,0.662514667 L9.70252762,2.81011467 C9.70252762,3.363048 10.3822705,3.64003467 10.7797562,3.24899467 L12.9627562,1.10139467 C13.3602419,0.710354667 13.0786895,0.0416346667 12.5166419,0.0416346667 L10.3336419,0.0416346667 C9.98513714,0.0416346667 9.70252762,0.319661333 9.70252762,0.662514667" id="Fill-8" fill="#344060"></path>
                <g id="Group-12">
                    <mask id="mask-4" fill="white">
                        <use xlink:href="#path-3"></use>
                    </mask>
                    <g id="Clip-11"></g>
                    <path d="M9.70252762,14.4939947 L24.3721467,0.0622613333 C24.1184324,0.0483946667 23.8611943,0.041808 23.6004324,0.041808 L17.5014229,0.041808 C17.3340419,0.041808 17.1733562,0.106981333 17.0549562,0.223461333 L9.70252762,7.45666133 L0.18648,16.8183947 C-0.225805714,17.2239947 0.0934514286,17.9155947 0.675232381,17.8771147 L2.13620381,17.780048 C2.51959429,17.7547413 2.83708952,18.069168 2.80819429,18.4459947 L2.70142286,19.8375147 C2.65772762,20.4119413 3.36319429,20.730528 3.7772419,20.3231947 L9.70252762,14.4939947 Z" id="Fill-10" fill="#344060" mask="url(#mask-4)"></path>
                </g>
            </g>
        </g>
    </g>
</svg>